<svg width="256" height="256" viewBox="0 0 256 256" fill="none" xmlns="http://www.w3.org/2000/svg">

  <!-- Background Sheet -->
  <rect x="72" y="28" width="148" height="200" rx="24" fill="#21A366"/>

  <!-- Top Area -->
  <path d="M96 28H196C209.255 28 220 38.7452 220 52V94H72V52C72 38.7452 82.7452 28 96 28Z"
        fill="#33C481"/>

  <!-- Middle Area -->
  <rect x="72" y="94" width="148" height="66" fill="#2DBE73"/>

  <!-- Bottom Area -->
  <path d="M72 160H220V204C220 217.255 209.255 228 196 228H96C82.7452 228 72 217.255 72 204V160Z"
        fill="#1E944F"/>

  <!-- Grid Lines -->
  <line x1="121" y1="28" x2="121" y2="228" stroke="#17864A" stroke-width="4"/>
  <line x1="170" y1="28" x2="170" y2="228" stroke="#17864A" stroke-width="4"/>

  <line x1="72" y1="94" x2="220" y2="94" stroke="#17864A" stroke-width="4"/>
  <line x1="72" y1="160" x2="220" y2="160" stroke="#17864A" stroke-width="4"/>

  <!-- Front X Panel -->
  <g filter="url(#shadow)">
    <rect x="44" y="56" width="120" height="120" rx="28" fill="#107C41"/>
  </g>

  <!-- X (왼쪽으로 한 번 더 미세 이동) -->
  <path d="M67 78H87L106 111L125 78H145L117 120L145 162H125L106 129L87 162H67L95 120L67 78Z"
        fill="white"/>

  <!-- Shadow -->
  <defs>
    <filter id="shadow" x="34" y="50" width="142" height="142" filterUnits="userSpaceOnUse">
      <feOffset dx="5" dy="7"/>
      <feGaussianBlur stdDeviation="6"/>
      <feColorMatrix type="matrix"
        values="0 0 0 0 0
                0 0 0 0 0
                0 0 0 0 0
                0 0 0 0.22 0"/>
      <feBlend in="SourceGraphic"/>
    </filter>
  </defs>

</svg>
