<svg width="24" height="24" viewBox="0 0 24 24" fill="none" xmlns="http://www.w3.org/2000/svg">
<path d="M12 2.2002C14.5983 2.20294 17.0895 3.23599 18.9268 5.07324C20.764 6.91049 21.7971 9.40173 21.7998 12L21.793 12.3633C21.7258 14.1742 21.1578 15.9336 20.1484 17.4443C19.0716 19.0559 17.5407 20.312 15.75 21.0537C13.9593 21.7954 11.9889 21.9895 10.0879 21.6113C8.18699 21.2332 6.4408 20.3002 5.07031 18.9297C3.69983 17.5592 2.76684 15.813 2.38867 13.9121C2.01055 12.0111 2.2046 10.0407 2.94629 8.25C3.68803 6.45928 4.94406 4.9284 6.55566 3.85156C8.16722 2.77481 10.0618 2.2002 12 2.2002ZM11.6768 3.80664C7.28809 3.97622 3.78769 7.63186 3.7998 12.0234C3.80399 14.0015 4.52681 15.9093 5.83105 17.3945C6.37417 16.6211 7.05824 15.9568 7.84766 15.4365C7.92504 15.3854 8.01686 15.3611 8.10938 15.3672C8.20205 15.3733 8.29028 15.4097 8.36035 15.4707C9.37045 16.3443 10.6616 16.8252 11.9971 16.8252C13.3325 16.8252 14.6237 16.3443 15.6338 15.4707L15.6895 15.4297C15.7482 15.3934 15.8152 15.3718 15.8848 15.3672C15.9773 15.3611 16.0691 15.3855 16.1465 15.4365C16.9367 15.9564 17.6211 16.6211 18.165 17.3945C19.4761 15.9037 20.2012 13.9867 20.2002 12C20.199 10.8963 19.9749 9.80428 19.542 8.78906C19.109 7.77381 18.4754 6.85572 17.6797 6.09082C16.8841 5.32615 15.9425 4.72941 14.9111 4.33691C13.8797 3.9444 12.7796 3.76431 11.6768 3.80664ZM11.8125 7.0752C12.7371 7.07624 13.6235 7.44386 14.2773 8.09766C14.9311 8.75145 15.2988 9.63789 15.2998 10.5625C15.2998 11.2523 15.0951 11.9265 14.7119 12.5C14.3288 13.0733 13.7845 13.5202 13.1475 13.7842C12.5102 14.0481 11.8083 14.118 11.1318 13.9834C10.4554 13.8488 9.83437 13.516 9.34668 13.0283C8.85899 12.5406 8.52619 11.9196 8.3916 11.2432C8.25704 10.5667 8.32686 9.8648 8.59082 9.22754C8.85478 8.59051 9.30167 8.04621 9.875 7.66309C10.4485 7.27988 11.1227 7.0752 11.8125 7.0752Z" fill="#3B414E" stroke="black" stroke-width="0.1"/>
</svg>
