<svg width="24" height="24" viewBox="0 0 24 24" fill="none" xmlns="http://www.w3.org/2000/svg">
<path d="M21 7.52344H15V4.875C15 4.46016 14.6648 4.125 14.25 4.125H4.6875V3.1875C4.6875 3.08437 4.60312 3 4.5 3H3.1875C3.08437 3 3 3.08437 3 3.1875V21.5625C3 21.6656 3.08437 21.75 3.1875 21.75H4.5C4.60312 21.75 4.6875 21.6656 4.6875 21.5625V15.375H10.5V18.0234C10.5 18.4383 10.8352 18.7734 11.25 18.7734H21C21.4148 18.7734 21.75 18.4383 21.75 18.0234V8.27344C21.75 7.85859 21.4148 7.52344 21 7.52344ZM4.6875 13.6875V5.8125H13.3125V13.6875H4.6875ZM20.0625 17.0859H12.1875V15.375H14.8125C14.9156 15.375 15 15.2906 15 15.1875V9.21094H20.0625V17.0859Z" fill="#3B414E"/>
</svg>
