<svg width="24" height="24" viewBox="0 0 24 24" fill="none" xmlns="http://www.w3.org/2000/svg">
<path d="M18.646 12.6742C18.6493 12.5573 18.6493 12.4403 18.646 12.3233L19.8578 10.8094C19.9213 10.73 19.9653 10.6367 19.9862 10.5371C20.0071 10.4375 20.0042 10.3344 19.978 10.236C19.779 9.48944 19.4818 8.77253 19.0943 8.10405C19.0435 8.0166 18.973 7.9422 18.8884 7.88679C18.8038 7.83137 18.7075 7.79647 18.607 7.78487L16.6805 7.57045C16.6004 7.48598 16.5192 7.40476 16.4369 7.32679L16.2094 5.39542C16.1978 5.29488 16.1627 5.19847 16.1072 5.11386C16.0516 5.02925 15.9771 4.9588 15.8894 4.90811C15.221 4.5209 14.5041 4.22429 13.7575 4.02608C13.6592 3.99981 13.556 3.99701 13.4564 4.01788C13.3569 4.03876 13.2636 4.08274 13.1841 4.14628L11.6742 5.35156C11.5573 5.35156 11.4403 5.35156 11.3233 5.35156L9.80944 4.14222C9.72995 4.07868 9.63665 4.0347 9.53706 4.01382C9.43746 3.99294 9.33435 3.99575 9.23604 4.02202C8.48944 4.22102 7.77253 4.51817 7.10405 4.90567C7.0166 4.95646 6.9422 5.02695 6.88679 5.11155C6.83137 5.19615 6.79647 5.29252 6.78487 5.39298L6.57045 7.32273C6.48598 7.40341 6.40476 7.48463 6.32679 7.56639L4.39542 7.78811C4.29488 7.79981 4.19847 7.83483 4.11386 7.89039C4.02925 7.94595 3.9588 8.02051 3.90811 8.10812C3.52098 8.77668 3.22412 9.49357 3.02527 10.2401C2.99911 10.3385 2.99644 10.4416 3.01746 10.5412C3.03848 10.6408 3.0826 10.7341 3.14628 10.8135L4.35156 12.3233C4.35156 12.4403 4.35156 12.5573 4.35156 12.6742L3.14222 14.1881C3.07868 14.2676 3.0347 14.3609 3.01382 14.4605C2.99294 14.5601 2.99575 14.6632 3.02202 14.7615C3.22102 15.5081 3.51817 16.225 3.90567 16.8935C3.95646 16.981 4.02695 17.0554 4.11155 17.1108C4.19615 17.1662 4.29252 17.2011 4.39298 17.2127L6.31948 17.4271C6.40016 17.5116 6.48138 17.5928 6.56314 17.6708L6.78811 19.6021C6.79981 19.7027 6.83483 19.7991 6.89039 19.8837C6.94595 19.9683 7.02051 20.0388 7.10812 20.0895C7.77668 20.4766 8.49357 20.7734 9.2401 20.9723C9.33847 20.9985 9.44162 21.0011 9.54122 20.9801C9.64082 20.9591 9.73408 20.915 9.8135 20.8513L11.3233 19.646C11.4403 19.6493 11.5573 19.6493 11.6742 19.646L13.1881 20.8578C13.2676 20.9213 13.3609 20.9653 13.4605 20.9862C13.5601 21.0071 13.6632 21.0042 13.7615 20.978C14.5082 20.7793 15.2252 20.4822 15.8935 20.0943C15.981 20.0435 16.0554 19.973 16.1108 19.8884C16.1662 19.8038 16.2011 19.7075 16.2127 19.607L16.4271 17.6805C16.5116 17.6004 16.5928 17.5192 16.6708 17.4369L18.6021 17.2094C18.7027 17.1978 18.7991 17.1627 18.8837 17.1072C18.9683 17.0516 19.0388 16.9771 19.0895 16.8894C19.4766 16.2209 19.7734 15.504 19.9723 14.7575C19.9985 14.6591 20.0011 14.5559 19.9801 14.4563C19.9591 14.3567 19.915 14.2635 19.8513 14.1841L18.646 12.6742ZM11.4988 15.7475C10.8562 15.7475 10.2281 15.557 9.69388 15.2C9.15963 14.843 8.74323 14.3356 8.49734 13.742C8.25145 13.1484 8.18712 12.4952 8.31247 11.865C8.43782 11.2348 8.74723 10.6559 9.20158 10.2016C9.65592 9.74723 10.2348 9.43782 10.865 9.31247C11.4952 9.18712 12.1484 9.25145 12.742 9.49734C13.3356 9.74323 13.843 10.1596 14.2 10.6939C14.557 11.2281 14.7475 11.8562 14.7475 12.4988C14.7475 13.3604 14.4052 14.1867 13.796 14.796C13.1867 15.4052 12.3604 15.7475 11.4988 15.7475Z" fill="#3B414E"/>
</svg>
