<svg width="24" height="24" viewBox="0 0 24 24" fill="none" xmlns="http://www.w3.org/2000/svg">
<path d="M18.1367 12.9736C19.2112 12.9736 20.1542 13.2574 20.959 13.8184C21.7611 14.3774 22.4225 15.2101 22.9414 16.3047L22.9482 16.3105L22.9512 16.3184C23.0816 16.599 23.0821 16.927 22.9492 17.21C22.4285 18.308 21.7637 19.1432 20.959 19.7041C20.1539 20.2653 19.2112 20.5498 18.1367 20.5498C17.0622 20.5498 16.1196 20.2657 15.3145 19.7051C14.6103 19.2147 14.0134 18.5145 13.5264 17.6113L13.3242 17.2119C13.1932 16.9328 13.1919 16.6085 13.3193 16.3281V16.3242L13.3242 16.3135C13.845 15.2154 14.5098 14.3803 15.3145 13.8193C16.1195 13.2582 17.0622 12.9736 18.1367 12.9736ZM18.1367 14.5732C17.4176 14.5732 16.7978 14.747 16.2607 15.1084C15.7286 15.4665 15.2742 16.0111 14.8857 16.7617C15.2754 17.5123 15.7298 18.0569 16.2617 18.415C16.7984 18.7764 17.4176 18.9502 18.1367 18.9502C18.8559 18.9502 19.4757 18.7764 20.0127 18.415C20.5448 18.057 20.9983 17.5121 21.3867 16.7617C20.9971 16.0113 20.5435 15.4664 20.0117 15.1084C19.475 14.7471 18.8559 14.5732 18.1367 14.5732ZM18.1484 15.4111C18.5098 15.4111 18.8568 15.5541 19.1123 15.8096C19.3678 16.0651 19.5107 16.4121 19.5107 16.7734C19.5107 17.1348 19.3678 17.4818 19.1123 17.7373C18.8568 17.9928 18.5098 18.1357 18.1484 18.1357C17.7871 18.1357 17.4401 17.9928 17.1846 17.7373C16.9291 17.4818 16.7861 17.1348 16.7861 16.7734C16.7861 16.4121 16.9291 16.0651 17.1846 15.8096C17.4401 15.5541 17.7871 15.4111 18.1484 15.4111ZM21.125 3.9502C21.5675 3.9502 21.9248 4.30754 21.9248 4.75V11.667H20.1377V5.7373H3.7373V15.9502H11.0498V17.7373H2.75C2.30754 17.7373 1.9502 17.38 1.9502 16.9375V4.75C1.9502 4.30754 2.30754 3.9502 2.75 3.9502H21.125ZM16.3262 7.27539C16.4184 7.18321 16.5699 7.18321 16.6621 7.27539L17.5244 8.1377H17.5234C17.6185 8.22982 17.6182 8.3803 17.5234 8.47266L12.2207 13.7822C12.1285 13.8744 11.9769 13.8744 11.8848 13.7822L9.90137 11.7969L7.55176 14.1475C7.45958 14.2396 7.308 14.2396 7.21582 14.1475L6.35352 13.2852C6.26155 13.1931 6.26167 13.0424 6.35352 12.9502L9.73535 9.56738C9.81598 9.48675 9.94223 9.47669 10.0342 9.53711L10.0713 9.56738L12.0537 11.5518L16.3262 7.27539Z" fill="#3B414E" stroke="#3B414E" stroke-width="0.1"/>
</svg>
